<svg xmlns="http://www.w3.org/2000/svg" width="512" height="512" viewBox="0 0 512 512" version="1.1">
	<path d="M 120.763 22.019 C 107.348 24.317, 94.701 31.078, 84.494 41.409 C 76.692 49.305, 71.543 58.146, 67.842 70 L 65.500 77.500 65.500 258.500 L 65.500 439.500 67.847 446.975 C 73.866 466.145, 85.377 479.849, 102.838 488.634 C 116.260 495.387, 108.751 495.095, 261 494.782 C 398.490 494.500, 398.500 494.500, 404.048 492.373 C 425.668 484.086, 439.892 469.835, 446.761 449.578 L 449.500 441.500 449.763 260.544 C 450.026 80.081, 450.021 79.565, 447.947 71.563 C 444.983 60.128, 439.734 50.780, 431.347 42 C 423.168 33.437, 416.331 28.972, 404.665 24.577 L 396.500 21.500 261 21.354 C 186.475 21.273, 123.369 21.573, 120.763 22.019 M 125.500 26.654 C 104.335 30.010, 87.470 41.457, 78.282 58.701 C 70.495 73.316, 71.031 58.629, 71.015 257.590 C 71 431.694, 71.044 435.853, 72.975 443.404 C 75.653 453.874, 80.250 462.140, 87.930 470.296 C 100.190 483.316, 113.309 488.816, 134 489.610 C 140.875 489.874, 202.975 489.695, 272 489.212 C 395.856 488.346, 397.572 488.307, 403 486.242 C 412.591 482.592, 418.289 478.838, 426.034 471.063 C 434.681 462.382, 438.916 455.052, 441.923 443.562 C 443.988 435.667, 444 434.637, 443.985 257.562 C 443.969 60.038, 444.422 73.392, 437.271 59.603 C 432.318 50.050, 420.932 38.660, 411.500 33.821 C 397.871 26.828, 405.680 27.197, 260 26.662 C 187.675 26.396, 127.150 26.392, 125.500 26.654 M 147 131 L 147 152 199.835 152 C 228.895 152, 279.070 152.299, 311.335 152.664 L 370 153.328 370 131.664 L 370 110 258.500 110 L 147 110 147 131 M 147 216.500 L 147 238 200.250 237.999 C 229.538 237.999, 279.488 237.700, 311.250 237.335 L 369 236.672 369 215.836 L 369 195 258 195 L 147 195 147 216.500 M 146 302.500 L 146 324 258 324 L 370 324 370 302.500 L 370 281 258 281 L 146 281 146 302.500 M 146.667 364.667 C 146.300 365.033, 146 374.708, 146 386.167 L 146 407 258 407 L 370 407 370 385.500 L 370 364 258.667 364 C 197.433 364, 147.033 364.300, 146.667 364.667" stroke="none" fill="black" fill-rule="evenodd"/>
</svg>